<svg xmlns="http://www.w3.org/2000/svg" width="1672" height="1672" viewBox="0 0 1254 1254"><path d="M608 106a514 514 0 0 0-488 469 507 507 0 0 0 249 485c93 56 207 81 315 69a510 510 0 0 0 326-845 510 510 0 0 0-403-178m96 174q2 2-1 4-1 3-3 0-4-2-1-5 3-2 5 1m56 1q1 3-3 3-5-1-2-4t5 1m-186 9q7 1 4 6c-4 7 0 23 9 31 5 6 15 11 21 13h3l-1-3v-15l1-6q0-4 5 5c6 10 6 11 12 10h16l5-8q7-10 7-6c2 4 3 15 1 19q-6 12 10 1 16-7 22-21 7-13 4-21l-2-4 8-1c19-3 45 5 65 18a118 118 0 0 1 44 61l-6-7-8-11-4-5c0-5-20-26-34-34a94 94 0 0 0-48-16c-10 0-10 0-10 7l-2 12-2 6 3-2 4-7q3-7 4-3l1 3q1 4 4 0l-2-5q-3-4 3 0l3 2 1-3q1-4 6-3c7 1 23 6 31 11l13 9c7 5 23 21 23 22l-7-3q-13-6-24-4-10 2-15 12c-2 4-2 6-2 14v9l-4-4c-9-9-24-13-32-8q-10 7-10 21v4l-4-4q-10-11-23-4-10 5-12 15c-1 5-7 15-9 15q-4 0-10 13l-4 5-3-7q-5-9-8-11l-4-5q-4-5-4-3l-4 2c-10 0-35 7-49 14l-7 3 2 2 2 2 2 3q4 4 2 6l-6 4q-2-3-1-8 2-1-3-4-4-2-7 1-3 1-2 4 2 6 5 6v5q-1 2-6-8l-2-4-2 2-4 2c-2-1-22 17-32 29q-25 32-34 75a163 163 0 0 0 23 112l3 4h8l7 1q0 2-6 2l-6 2 6 6 5 7-4 1c-4 0-4 0-10-8q-7-9-9-7c-8 1-48-2-53-5h-4q-6 3-10 0-2-1-1-3t-9-7q-13-6-22-19l-2-3-2 3-3 2-2-2-2-7q-2-5 2-8 6-7 12 0 7 5 2 9l-2 3 3 4 5 6 7 5 10 6q5 3 6 0 5-4 9 2 2 5 5 5c8 3 23 5 37 5l15 1-2-4q-22-34-25-76c-2-26 4-57 18-84 12-25 25-41 47-58 5-5 6-5 6-11l2-8q1-2 7 1l5 3 10-4q24-11 54-17 7 1 2-7-2-9-12-12-9-2-18 6l-3 3-1-6q-2-11-8-17-2-2-8-3c-5-1-6-1-11 1q-6 2-11 7l-6 5-1-10c0-9-1-11-3-15-6-11-22-13-39-4q-11 7 2-7 15-14 26-21 9-5 5-6-5 1-20 14c-10 8-18 18-34 40l-6 7 5-15c6-13 23-33 35-43 23-17 53-26 73-22m216 9q3 3-1 6-1 1-4-1l-3-3 3-1 2-2q0-2 3 1m-299 1q-2 2-1-1h1zm173 2q0 3-4 2v-2zm40 0-1-1v-1zm-151 92-1-1v-1zm117 5q17 3 33 12 9 5 11 3 9-2 14 4 1 4 4 2l27-1c25 1 40 2 53 5q6 3 7 0c4-5 11-3 13 3q0 4 8 8c9 4 20 14 24 22q10 21-2 47c-4 7-10 17-15 22q-2 3-1 5 3 6-2 10-4 3-7 2c-4-1-4-1-12 5l-17 14c-10 6-10 7-11 11 0 9-4 29-8 39-8 26-27 57-36 59l-7 5q-9 8-2-3l2-3q-2 1-5-6l-4-6-5-4-4 3-6 5-4 4q-1 3-7 6l-6 4-5 3-7 5q-1 3-4 1-6-1 1-5c18-9 25-15 31-23q4-6 6-5 3 2 5-4 5-9 5-2l1 2 1-3 2-5 3-7 5-8c4-8 0 9-5 18l-3 5 2 2 4 2q3 1 3 6v5l2 2 4-5a162 162 0 0 0 34-83q2-5-9 1-17 7-1-3l10-6v-10a164 164 0 0 0-68-128l-6 3c-9 5-10 5-11-3q-2-8 1-2l3 4-1-3-2-7q0-3-4-5c-10-6-29-13-45-16q-2 0-1-3c0-3 2-3 14 0m8 20 1 2-1 2-1-1-1-2v-1zm-80 8 5 2h-5q-7-1-20 3-4 1-4 4-3 5-7 1l-2-2 2-3 5-2q3 1 10-2l10-3zm72 1 6 2-18-5zm60 15q1 3-2 1l-1-3q3-3 3 2m-190 5 6 2h2l2 3 2 2-16-8q-2-2 4 1m70 33 29 82 9 26 9 22q2 3 7 5t4 6v4h-54v-4q-1-5 3-5 6-2 8-5 2-1-4-19l-6-16h-52l-6 16q-5 15-4 17 1 6 8 7 5 0 4 5v4h-45v-4q-1-4 4-5 8-1 14-19l24-64 11-33 8-24 3-9h3q4 1 9-6l5-5zm113-12 1 3q1 4-5 5-10 3-9 11l-1 64c1 57 1 58 3 61l7 4q5 2 5 5v3l-28 1h-27v-4q-1-5 4-5l6-3 3-2v-63l-1-66q-1-4-10-7-4 0-3-4-1-5 3-4c3-1 50 0 52 1m-307 20q4 9 14 13l9 2q5 1-3 2-12 2-17 9c-3 4-8 17-8 21q-1 7-3-3l-4-13q-3-8-9-9-5-3-12-4l-6-2 8-2q14-4 19-12l4-11q2-16 4-3zm569-16c0 4 6 25 9 31 5 10 12 15 30 19l9 3-4 1-6 1c-4 0-16 5-21 9q-5 3-8 10l-8 27-2 6-1-5c-1-8-5-20-7-26q-8-16-33-22l-8-1 10-3q25-6 31-21c3-6 7-24 7-29l1-2zm-526 60-8 4q-3-1 2-3 5-3 6-1m-16 8q0 2-7 6l-19 11a74 74 0 0 0-29 31q-5 10-1 9l1 2-6 1-6-1q-1-3 2-4 2 1 5-5c5-15 22-31 41-42l13-7q7-6 6-1m-181 15q5 4-2 4l-4-1 4-5zm589 8q1 9 4 14c2 5 3 5 9 8l11 4 5 2-6 1q-13 3-18 10-3 4-5 13l-2 8-2-8c-5-17-8-19-25-23l-6-2 9-2q14-3 17-9l6-19 1-5zm-356 0 1 4v3l-1 2-2-2-5-2q-2 0-1-1l2-1 3-4q1-4 2-3zm268-1c1 2 0 9-2 10-1 2-3-7-2-9q1-3 4-1m-500 3q2 0 1 2-1 8-3 7-3 0-3-6t5-3m2 15 8 2q6 0 7 2l1 1-40-1c4-2 13-4 14-3l4-1zm231 2-1-2 1-2zm264 4q2 2-1 6-3 7-4 1l-1-4q-2-1 1-3 3-4 5 0m-265 3 3 2q2 1 1 4-1 4-5 0l-4-3q-2-3 1-5zm-219 15c13 23 16 33 19 61 1 11 3 24 6 31q1 2-6 2h-11c-8-2-35-1-44 0-13 3-14 2-12-6l3-32c1-16 2-19 4-27 6-15 11-29 15-34 2-3 2-3 12-3h9zm478 4-1 2-1-2 1-1zm-256 1v3c-1 2-5-1-4-3zm8 19 2 8c-1 1-9-13-8-16q3-3 6 8m224 16-1 1h-1l1-2zm-206 5a238 238 0 0 0 55 45h-8l-2-2q0-2-7-6l-7-5-2-1-10-7-13-10-2-1-5-7q-6-7-3-9zm206 14q0 2-5 6l-9 7-4 4v-5q1-4 5-6l7-4q6-5 6-2m-399 11v3l-1-7zm169-1-1-1v-1zm13 2q6 6 1 4-4 0-5-5-2-5 4 1m310 7 42 4 4 18 9 40 30 120q4 9-52-8a306 306 0 0 0-119-16c-20 3-46 12-61 20q-27 16-42 37l-2 4-1-79c0-89-1-81 8-91l4-5h-32l5 6 6 8c1 2 2 19 1 82v79l-5-7c-9-13-27-28-44-36l-6-3 1-10c0-13 0-13 3-13q3-1 1-4l-2-4q-1-7-12-11-34-12-46-12-4-1-7 6-6 9-1 9l1 2-2 12v9h-16c-27 1-48 5-95 19l-42 10q-6 0-3-7l37-152 4-16 1-7 4-1c30-3 31-3 70-3 52-1 65 1 96 12a159 159 0 0 1 43 23c5 2 25 3 37 2l12-1 10-7c18-12 41-21 60-25 33-6 55-7 101-4m-238 1-1-1 1-1zm107 6c-1 2-13 9-16 9q-5 0 4-5l9-4q3-3 3 0m-21 0c0 2-8 6-15 8-8 1-18 2-20 1q-6-1 6-3c10 0 21-3 23-5q5-4 6-1m-39 10q-2 3-5 2v-3q4-2 5 1m-29 1q14 3-4 3l-14-2-7-1h5l5-1c0-1 2-1 15 1m19 0v2h-12c1-2 10-3 12-2m-309 6 2 2-12-1c-3-3 5-3 10-1m638 1c-1 2 0 2 11 2l8 1h4l-5 1-11 1-5 1q-1 1 4 1l7 1c2 2-11 1-15-1q-9-3-10-6l5-1zm-752 8 3 2c0 3-10 6-13 4-2-1-5-7-5-8l2 3 3 3-1-4-4-4-1-1c0-1 1-1 16 5m23 0q-1 6-6 11c-6 4-13 6-10 2v-10l6-5 5-3 3 2zm755-5-1-1v-1zm-798 3v-2l1-1zm103 0q1 1-7 2-12 0-11-2c1-1 16-2 18 0m32 2q5 5 2 8-2 1-1 4l-1 4q-2 2-3-1l1-4q0-2-4-3l-5-2-2-1 4-4 5-5zm-132 2c1 2 0 9-1 9-2 0-3-8-2-10q1-3 3 1m94 3q3 3-1 3-2 0-5 3c-2 4-2 4-9 4l-9-1q-4-2-3-9c0-1 1-2 13-1zm654 15c19 11 21 13 23 23 2 8-1 20-4 20-2 0-10-6-12-8l-3-3-7-3-8-4-5-3q-2-3-5-3t-3-2l-1-15-1-9q-3-3-1-4l1-2q-2-3 8 3zm9-12 6 3q3 3-8-1-9-5-4-4zm-704 1 2 5q0 5-2 4c-3-1-7-7-5-9q3-4 5 0m789-1q3 5-2 2l-1-2zm-647 4-4 13-28 107c-5 21-6 23-3 26q1 2 9 2a514 514 0 0 0 67-16q10 3 20 0l13-2q17-2 16-4 0-2-14-1h-8l6-1 11-2 17-2 16 1c3 2 4 3 2 11l-1 5-4-1h-14l-29 2q-11 0-14 4l-3 1-4 2c-3 3-15 7-20 7a66 66 0 0 0-24 12v3h4l7-2 5-1-4-1-4-1 7-3 17-7 19-5 22-5c13-3 13-3 19-1l10 1q8-1 2 3c-3 2-5 2-23 6q-23 5-27 8l-9 3-17 4c-14 4-25 8-25 10 0 1 2 1 14-3s42-10 52-10l10 1 4 2h-3q-5 1 1 1l19-3h-4l1-3v-5q-2-3 6-4 3-1 2 2l1 2 1-3 1 5v8h-5a475 475 0 0 0-90 16c-51 15-92 25-98 25q-6-1 4-6l18-7q28-11-1-3c-16 4-16 4-17 3q-1-2-8 5l-7 6 70-176 9-15 12-16zm580 1h-7q-3-1 4-1 5 0 3 1m-72 9c10 18 12 21 14 21l2 6 16 42 47 121q3 7-3 1-5-4-6-3-5 3-29-9l-10-5-6-3c-5-4-15-8-17-7q-1 1 6 5 11 4 6 4l-2 2h-3l-32-11c-6 0 12 9 25 13 17 5 20 6 21 5l-1-1-1-2-1-3-2-2c1-1 9 4 12 7s16 8 29 11l4 3 1 1-14-2-88-26-4-1h-1q-2 1-2-2h-7q-2-1 1-1 3 2 1-1v-1l1-1 2-2 16 2h1l1-3q2 1 4-1a315 315 0 0 1 59 13c4 0 16 4 20 6v-1q-6-8-13-10l-15-7-13-6-2-1 1-1 1-1 1-1c2 2 10 4 11 3 0-1-25-13-35-16l-11-5 14 3q12 4 20 4c8 0 8 0 10-2 1-3 1-3-1-10l-33-131q-2-5 5 6m161-2 3 1-4-1h-10q-7 0-1-1 8-2 12 1m-734 1h4q2 3-2 4l-4-1-2-2c0-2 4-3 4-1m712 1h-5q-1-1 3-1t2 1m-773 13q0 8-1-1v-5zm63 3q0 3 5 8 6 8 3 8l-3-2q-3-3-1 0t-1 5q-4 3-8 0l-4-2 1-8 3-3c1 1 1 1 2-8q0-9 3 2m-63 25-1 4-1-4 1-4zm689 8q14 7 15 10c2 5 3 18 1 24q-2 7-6 4h-2l-1-1-1-1v2l-4-6-15-40zm-672-5q-1 3-6 2-2-1 1-3t5 1m-23 7c8 3 23 3 32 0q10-3 17 1 6 2 0 2-2-1-6 1c-21 6-41 7-48 0l-4-3q-3 0-1 3 1 4-3 3l-6-3q-6-2 4-3l5-2q0-2 10 1m70 1q1 4-3 3v-3zm213 20v3l-5-3q2-2 5 1m-8 2c1 2 0 8-2 30l-5 39q0 7-2 7l-1-6 3-35 2-21c1-14 2-15 3-15zm40 20-8 71-2 1a771 771 0 0 1 8-83c2 0 2 0 2 11m-305-2 4-1h4l6 1-2 1c-6 1-18 0-18-2l2-1zm14 8q1 4-5 4-7 1-4-4c2-3 8-3 9 0m1 7-10 1q2-2 9-2 3 0 1 1m506 3c3 1 5 1-17 2l-32 2 18-4zm-539 3q2 1-1 1h-2l1 1 1 1q-3 0-5-3 1-3 6 0m556-1c15 2 29 5 29 6l-2 1q-1 1 0 0l-3-1h-3l-1-1-1 2-1 2-1-1h-1l-2 1-2 1h-2l-1-1-1-1h-1l-1-1c-2 1-8-2-10-4l-2-2-3-1zm199 1q2 6-1 9l-1-5q0-9 2-4m-711 1q1 2-2 2-3-1-1-2zm-27 1q2 1-1 2h-14q-3-1 2-1 5 2 6-1zm506 0 1 1q-1 3-3-1-2-1 0 0zm7 1q0 3 2 1h1l2 1q3 0 1 1h-13l1-1 1-2 1-1h1l2-1zm-492 1q-1 4-14 6-8 0-6 3l-2 4h-16v-3q0-2 7-5l9-3 21-4zm516 6 7 1 3 1q2 2 5-1l1 1q0 3 2 0h1q-2 2 2 2l2 1q-1 2 1 2l1-1h9q4-1 3 2v1h3l2 2q5 1 6-1l2-1 1-2h1l11 4q17 6 16 7v1h-2l-3 1h-4l-7 1h-6l-4-3-3-1c-4 1-19-2-19-5v-1l1 1h2q2-2-2-2-4 1-4-1h-2l-10 1q-14-1-13-3h-3c-3 1-3 1-18-2l-19-2q-1-1 3-2c5-2 26-2 34-1m-527 10q5 6 3 8l-5 1q-6 1-8-1l4-1q10 0 4-6-2-3-6-1l-4 1-3 1 3-2q6-6 12 0m454-1-5 1-3 1 3-2zh2zm-150 7q-1 1-1-2 0-2 1-1zm199 6q-4 2-3 3t-1 1-2 3l1 3h-20q-14 3-13 0-1-1 1-1 3 1 0 0-2-2-4-1l-1-1q3-1-4-2h-5c-1-1 12-3 21-4l13-1zm92 1h-2l-2-1h2zm-33 0-3 1q-3 0-1-1zm-113 6-5 3q-3 0-3 2l-2 1-5 1-6 2 9-5 10-5q6-2 2 1m77 1q2 4-3 3l-5-1 1-1h3q3 0 1-1l-1-2q1-2 4 2m13-2h-2v-1zm83 2 4 2h1q6 0 20 5 13 6-2 2l-11-3-8-1-6-3q-3 0-2-1l-2-1q-1-1 0 0h-1l-2-1-1-1q0-2 10 2m-615 3q-3 2 0 3l1 1-3-1q-2-1 1-3l2-2zm483 1 4-1h14zm40 1h-4l-13-1h4zm-514 0-2 1v-1zm525 2h-4q-2-1 2-1 3 0 2 1m10 1q3 1 0 1l-5-1q-4-1-1-1zm-99 1h-2q-1-1 1-1t1 1m-4 1h-2v-1zm123 0-1-1v-1zm-131 2-6 1 9-3zm-46 9 1 5q0 5 2 3v1l-2 2-3-3q-4-2-3-5 1-2 0 0-4 3-5-1c1-2 9-4 10-2m-149 12-2 20-5 77c1 3 1 2 11-6l10-9 8 8 9 10q3 5 3-4l3-43 1 26c-1 23-1 27 1 28l1 5v4l-3-4-23-24-22 19q-5 6-4 0l5-58zm43-9c1 2-3 37-4 40v-12q0-32 3-30zm-4 52h-1v-4h1z"/><path d="M556 296q-14 2-26 7-9 6 8 1c10-3 13-3 17 0q4 2 6 1l7 7 5 5-2-12v-9zm60 39-6 14 2 4 2 4 5 5q4 3 8 11l2 3 6-4q8-7 2-12v-3l3-6q3-7 6-4 2 3-3 5-6 4-1 10l3 2 3-2c6-6 6-11 1-23l-2-5-2 2q-3 3-7 0h-12q-3 3-5 0-4-3-5-1m4 17q-1 2-4-1l1-3h2zm9 4q1 3-1 3v-4zm32-11q-5 2-5 5h1l5-4q7-3-1-1m71 79q-7 0 3 8a176 176 0 0 1 62 125l1 7 26-20c5-5 5-5 4-8v-7q3-4 10-4 4 2 10-6c6-9 14-24 15-31q3-19-6-33-6-9-20-17l-5-2-4 2q-4 3-7 0l-3-5q-1-4-7-4a401 401 0 0 0-79-5m-145 85-11 30-8 23h21c20 0 21 0 21-2l-16-46-5-12zM402 868l-11 5 21-5q3-3 1-4zm-31 15c-10 1-33 12-39 17q-6 5-5 2v-1q-3-1 2-3l5-4 6-5q7-4-6 1l-9 5-4 6-4 3 4-1 3-2-4 3-4 4c-1-1-6 4-6 5q0 4 20-6c15-6 16-6 16-2q0 3 2 1l10-3c8-3 23-11 25-13q5-4-10 3l-13 5h-2c1-2 14-9 21-12l4-2c-1-1-9-2-13-1m-5 5-8 4 4-3zm-13 7-4 1 2-2q6-2 2 1m1 6-3 1 1-2q5-2 2 1m136-10q0 2 1 1v-2q-1-1-1 1m-35 5h4q1-1-2-1t-2 1m-10 1-2 1zl6-1 3-1h-3zm-6 2h2q1-1-1-1t-1 1m-83 8-10 5-3 2-1 2 1 1 28-13q-1-3-15 3"/><path d="m331 909-4 2 8-2c5-2 1-3-4 0m3 12h-3v2c2 2 3 2-12 6l-3 1 3-1 19-5q-7 2-4-3l1-1zm12 1q-3 1 0 1l4-1zm572-32 2 1zq-2-1 0 0m-22 30h2zm54 0 4 4-1-2zm-36 5h2q1-1-1-1t-1 1m36 8h2q1-1-1-1t-1 1m-148-78v1l1-1v-1zm29 21h5l-3-1zm-89 9q-3 0 0 3 4 5 4-1 0-4-4-2m-1 6 1 1 1-1-1-1z"/></svg>